<?xml version="1.0" encoding="UTF-8"?>
<!-- Generator: Adobe Illustrator 27.0.1, SVG Export Plug-In . SVG Version: 6.00 Build 0)  -->
<svg xmlns="http://www.w3.org/2000/svg" xmlns:xlink="http://www.w3.org/1999/xlink" version="1.1" id="Layer_1" x="0px" y="0px" viewBox="0 0 1000 391" style="enable-background:new 0 0 1000 391;" xml:space="preserve">
<style type="text/css">
	.st0{fill:#FFFFFF;}
</style>
<path d="M971,92.3h-20.6v164.6H971V92.3z M884.6,132.5c-14.2,0-35.7,4.5-43.7,30.4h21.5c3.6-8.4,12.3-12.5,22.2-12.5  c14.1,0,24.1,3.9,24.8,15.3c0.5,7.7-5.1,13.7-12.4,13.7h-18.3c-24.9,0-45.4,15.4-45.4,40.1c0,23.4,19.9,40.1,44,40.1  c12.8,0,32.1-7.2,32.1-40.1c0,12.3-15.3,22.2-30.7,22.2c-15.3,0-24.9-10-24.9-22.2c0-17.2,12.9-23.7,24.9-23.7h14.8  c5.6,0,15.9-3.6,15.9-29.1l0,52.8v37.2H930v-89.9C930,143.1,906.2,132.5,884.6,132.5 M771.5,241.8c-17,0-30.9-13.8-30.9-44.5  s13.8-44.5,30.9-44.5c17,0,30.9,19.7,30.9,44.5S788.5,241.8,771.5,241.8z M771.5,135.3c-16.7,1.2-30.9,13.5-30.9,62V92H720v164.6  h20.6v-18.2c5.9,12.5,18.5,20.7,30.9,21.1c28.3,1,51.4-27.8,51.4-62.1C822.9,163,799.8,133.4,771.5,135.3 M648.5,241.9  c-19.4-0.2-35.7-16.5-35.7-45.9c0-27.3,15.8-45.6,35.7-45.9c19.8,0.3,35.7,18.4,35.7,45.9C684.2,225.4,668,241.7,648.5,241.9   M648.5,132.5c-31.2,0-55.2,23.1-55.2,63.6s23.3,63.3,55.2,63.6c31.9-0.3,55.2-23.3,55.2-63.6C703.7,155.7,679.8,132.5,648.5,132.5   M577,92.3h-20.6v164.6H577V92.3z M519.6,258c1.3,11.5-11.2,24.4-34,24.4c-18,0-34.1-12.4-34.1-24.1c0-0.8,0.1-1.6,0.2-2.4h-19.2  c-0.1,1.1-0.2,2.1-0.2,3.2c0,22.6,23.8,41,53.2,41c29.4,0,55-19.2,53.1-41.3c-1.6-19-26.2-23.1-52.6-23.1  C504,235.9,518.3,246.5,519.6,258 M485.3,219.5c-18.5,0-33.6-16.5-33.6-33.2s15-33.2,33.6-33.2c18.5,0,33.6,16.5,33.6,33.2  S503.8,219.5,485.3,219.5 M539.4,186.3c0-13.8-5.9-26.3-15.3-35.4l15.3-15.3L525.9,122l-18.1,18.1c-6.9-3-14.5-4.6-22.6-4.6  c-29.9,0-54.2,22.8-54.2,50.8c0,16.9,8.8,31.3,22.3,40.1c12.1,7.8,23.9,9.2,32.8,9.2C515.7,235.7,539.4,213.7,539.4,186.3"></path>
<g>
	<path d="M200.5,381.1c102.4,0,185.5-83,185.5-185.5c0-102.4-83-185.5-185.5-185.5S15,93.2,15,195.7C15,298.1,98,381.1,200.5,381.1"></path>
	<path class="st0" d="M309.7,194.1c0,24.9-13.8,44.5-30.9,44.5c-17,0-30.9-13.8-30.9-44.5s13.8-44.5,30.9-44.5   C295.9,149.6,309.7,169.2,309.7,194.1 M330.3,194.1c0-34.3-23.1-63.1-51.4-62.1c-12.4,0.4-25,8.7-30.9,21.1v-18.2h-20.6v164.5H248   V194.1c0,48.5,14.2,60.9,30.9,62C307.2,258,330.3,228.4,330.3,194.1 M208.3,135.1h-20.6V91.9h-20.6v43.2h-20.6v16.5h3   c0.9,0,17.6,0.5,17.6,17.3v57.8c0,3.2,0.5,6.3,1.5,9.3c2.9,9,10.1,16.2,19.1,19.1c2.9,1,6,1.5,9.3,1.5h11.3v-20.6h-11.6   c-4.8,0-9-4.2-9-9.3v-56.3c0-15.3-20.3-18.3-31.3-18.7h51.9V135.1z M124.9,132.1c-12.7,0-25.7,17.3-25.7,47.7   c0-14.2,7.3-28.6,25.7-28.6c10.5,0,16.1,2.8,16.1,2.8v-19C136,133.1,130.6,132.1,124.9,132.1 M78.6,256.3h20.6V134.9H78.6V256.3z"></path>
</g>
</svg>
